<?xml version="1.0" ?>
<!DOCTYPE svg  PUBLIC '-//W3C//DTD SVG 1.1//EN'  'http://www.w3.org/Graphics/SVG/1.1/DTD/svg11.dtd'>
<!-- Uploaded to: SVG Repo, www.svgrepo.com, Generator: SVG Repo Mixer Tools -->
<svg fill="#000000" width="800px" height="800px" viewBox="0 0 100 100" version="1.1" xml:space="preserve" xmlns="http://www.w3.org/2000/svg" xmlns:xlink="http://www.w3.org/1999/xlink">
<g id="_x31_"/>
<g id="_x32_"/>
<g id="_x33_"/>
<g id="_x34_"/>
<g id="_x35_"/>
<g id="_x36_"/>
<g id="_x37_"/>
<g id="_x38_">
<path d="M29.4,59.6c-11.3,0-19.9-4.1-19.9-9.5c0-5.4,8.6-9.5,19.9-9.5c11.4,0,19.9,4.1,19.9,9.5C49.3,55.5,40.7,59.6,29.4,59.6z    M29.4,43.6c-9.7,0-16.9,3.4-16.9,6.5c0,3.1,7.2,6.5,16.9,6.5c10,0,16.9-3.4,16.9-6.5C46.3,47,39,43.6,29.4,43.6z M29.4,55.2   c-5.3,0-11-1.6-11-5.2s5.7-5.2,11-5.2s11,1.6,11,5.2S34.7,55.2,29.4,55.2z M29.4,47.9c-5,0-7.8,1.5-8,2.2c0.1,0.6,3,2.2,8,2.2   c5,0,7.8-1.5,8-2.2C37.2,49.4,34.3,47.9,29.4,47.9z M28.7,82.8c-6.8,0-11.5-1.3-14.4-2.3c-2.9-1.1-4.8-3.9-4.8-7V50.1   c0-0.8,0.7-1.5,1.5-1.5s1.5,0.7,1.5,1.5c0,3.1,7.2,6.5,16.9,6.5c10,0,16.9-3.4,16.9-6.5c0-0.8,0.7-1.5,1.5-1.5s1.5,0.7,1.5,1.5   v23.2c0,3.2-2,6-5,7C41,81.4,35.7,82.8,28.7,82.8z M12.5,55.2v18.2c0,1.8,1.2,3.5,2.9,4.2c2.6,1,7,2.1,13.3,2.1   c6.6,0,11.6-1.3,14.6-2.3c1.8-0.6,3-2.3,3-4.2v-18c-3.5,2.7-9.6,4.3-16.9,4.3C22.1,59.6,15.9,57.9,12.5,55.2z M37.3,72.6V57.6   c0-0.8-0.7-1.5-1.5-1.5s-1.5,0.7-1.5,1.5v15.1c0,0.8,0.7,1.5,1.5,1.5S37.3,73.5,37.3,72.6z M71.1,42.1c-11.3,0-19.9-4.1-19.9-9.5   c0-5.4,8.6-9.5,19.9-9.5c11.4,0,19.9,4.1,19.9,9.5C91,38,82.5,42.1,71.1,42.1z M71.1,26.1c-9.7,0-16.9,3.4-16.9,6.5   c0,3.1,7.2,6.5,16.9,6.5c10,0,16.9-3.4,16.9-6.5C88,29.5,80.8,26.1,71.1,26.1z M71.1,37.7c-5.3,0-11-1.6-11-5.2s5.7-5.2,11-5.2   s11,1.6,11,5.2S76.4,37.7,71.1,37.7z M71.1,30.4c-5,0-7.8,1.5-8,2.2c0.1,0.6,3,2.2,8,2.2c5,0,7.8-1.5,8-2.2   C78.9,31.9,76.1,30.4,71.1,30.4z M70.4,65.3c-6.8,0-11.5-1.3-14.4-2.3c-2.9-1.1-4.8-3.9-4.8-7V32.6c0-0.8,0.7-1.5,1.5-1.5   s1.5,0.7,1.5,1.5c0,3.1,7.2,6.5,16.9,6.5c10,0,16.9-3.4,16.9-6.5c0-0.8,0.7-1.5,1.5-1.5s1.5,0.7,1.5,1.5v23.2c0,3.2-2,6-5,7   C82.8,63.9,77.4,65.3,70.4,65.3z M54.2,37.7V56c0,1.8,1.2,3.5,2.9,4.2c2.6,1,7,2.1,13.3,2.1c6.6,0,11.6-1.3,14.6-2.3   c1.8-0.6,3-2.3,3-4.2v-18c-3.5,2.7-9.6,4.3-16.9,4.3C63.8,42.1,57.7,40.4,54.2,37.7z M79.1,55.1V40.1c0-0.8-0.7-1.5-1.5-1.5   s-1.5,0.7-1.5,1.5v15.1c0,0.8,0.7,1.5,1.5,1.5S79.1,56,79.1,55.1z"/>
</g>
<g id="_x39_"/>
<g id="_x31_0"/>
<g id="_x31_1"/>
<g id="_x31_2"/>
<g id="_x31_3"/>
<g id="_x31_4"/>
<g id="_x31_5"/>
<g id="_x31_6"/>
<g id="_x31_7"/>
<g id="_x31_8"/>
<g id="_x31_9"/>
<g id="_x32_0"/>
<g id="_x32_1"/>
<g id="_x32_2"/>
<g id="_x32_3"/>
<g id="_x32_4"/>
</svg>